<svg width="48" height="48" viewBox="0 0 48 48" fill="none" xmlns="http://www.w3.org/2000/svg">
<g clip-path="url(#clip0_467_114)">
<path d="M5.28003 15.12V32.88C5.28003 34.08 5.90403 35.136 6.96003 35.76L22.32 44.64C23.328 45.216 24.624 45.216 25.632 44.64L41.04 35.76C42.048 35.184 42.72 34.08 42.72 32.88V15.12C42.72 13.92 42.096 12.864 41.04 12.24L25.68 3.35998C24.672 2.78398 23.376 2.78398 22.368 3.35998L6.96003 12.24C5.90403 12.816 5.28003 13.92 5.28003 15.12Z" fill="#38B5FC" stroke="#89B7FF" stroke-width="3.965" stroke-miterlimit="10" stroke-linecap="round" stroke-linejoin="round"/>
<path d="M15.7921 30.9599C15.0721 26.3999 14.3521 21.8399 13.6321 17.3279C13.5841 17.0399 13.9201 16.7999 14.1121 16.9919L20.0641 21.8399C20.2081 21.9839 20.4961 21.9359 20.5921 21.7439L23.7601 16.3199C23.9041 16.0799 24.2401 16.0799 24.3841 16.3199L27.5521 21.6959C27.6481 21.8879 27.8881 21.9359 28.0801 21.7919L33.9361 16.9919C34.1761 16.7999 34.4641 16.9919 34.4161 17.3279C33.7441 21.8399 33.1201 26.3519 32.4481 30.8639C22.7521 30.9119 25.4401 30.8639 15.7921 30.9599Z" fill="#548ADF"/>
<path d="M16.704 30.2399L14.736 18.7679C14.688 18.5279 14.976 18.3359 15.168 18.4799L20.544 22.5119C20.688 22.6079 20.88 22.5599 20.928 22.4159L23.856 17.8559C23.952 17.6639 24.192 17.6639 24.336 17.8559L27.216 22.3679C27.312 22.5119 27.504 22.5599 27.6 22.4639L32.88 18.4799C33.072 18.3359 33.36 18.4799 33.312 18.7199L31.488 30.2399" fill="white"/>
</g>
<defs>
<clipPath id="clip0_467_114">
<rect width="48" height="48" fill="white"/>
</clipPath>
</defs>
</svg>
