<svg width="32" height="32" viewBox="0 0 32 32" fill="none" xmlns="http://www.w3.org/2000/svg">
<path d="M11.5352 20.5903H7.35654C6.76121 20.5903 6.32343 20.3294 6.04321 19.8077C5.76299 19.2857 5.7981 18.7767 6.14854 18.2807L17.7732 1.52167C17.9952 1.21323 18.2763 1.00478 18.6165 0.896337C18.9568 0.787893 19.2977 0.801336 19.6392 0.936669C19.9805 1.06356 20.2483 1.286 20.4425 1.604C20.637 1.922 20.7099 2.26334 20.6612 2.628L19.3952 12.7303H24.6769C25.3015 12.7303 25.7445 13.0106 26.0059 13.571C26.267 14.1314 26.2018 14.6533 25.8102 15.1367L13.0999 30.427C12.8705 30.7134 12.5831 30.8958 12.2375 30.974C11.892 31.0522 11.555 31.0179 11.2265 30.871C10.9063 30.7326 10.6592 30.5093 10.4852 30.2013C10.3114 29.8933 10.2489 29.5549 10.2975 29.186L11.5352 20.5903Z" fill="#FFEB35"/>
</svg>
